<?xml version="1.0" encoding="UTF-8" standalone="no"?>
<!DOCTYPE svg PUBLIC "-//W3C//DTD SVG 1.1//EN" "http://www.w3.org/Graphics/SVG/1.1/DTD/svg11.dtd">
<svg width="100%" height="100%" viewBox="0 0 2363 2363" version="1.1" xmlns="http://www.w3.org/2000/svg" xmlns:xlink="http://www.w3.org/1999/xlink" xml:space="preserve" xmlns:serif="http://www.serif.com/" style="fill-rule:evenodd;clip-rule:evenodd;stroke-linejoin:round;stroke-miterlimit:2;">
    <rect id="Plan-de-travail1" serif:id="Plan de travail1" x="0" y="0" width="2362.2" height="2362.2" style="fill:rgb(19,246,185);"/>
    <g id="Plan-de-travail11" serif:id="Plan de travail1">
        <g transform="matrix(2148.94,-189.844,189.844,2148.94,808.68,1827.9)">
            <path d="M0.041,-0.7L0.207,-0.7C0.264,-0.7 0.305,-0.687 0.331,-0.661C0.357,-0.634 0.37,-0.594 0.37,-0.539L0.37,-0.511C0.37,-0.475 0.369,-0.444 0.357,-0.422C0.346,-0.399 0.343,-0.382 0.319,-0.372C0.374,-0.354 0.381,-0.305 0.381,-0.226L0.381,-0.166C0.381,-0.112 0.367,-0.071 0.339,-0.043C0.31,-0.014 0.203,-0.004 0.148,-0.004C0.148,-0.004 0.069,0.089 0.047,0.115C0.046,0.116 0.044,0.116 0.043,0.116C0.042,0.115 0.041,0.114 0.041,0.112L0.041,-0.7ZM0.194,-0.415C0.216,-0.415 0.233,-0.421 0.244,-0.432C0.255,-0.443 0.26,-0.462 0.26,-0.489L0.26,-0.528C0.26,-0.553 0.256,-0.572 0.247,-0.583C0.238,-0.594 0.223,-0.6 0.204,-0.6L0.151,-0.6L0.151,-0.415L0.194,-0.415ZM0.214,-0.1C0.233,-0.1 0.248,-0.105 0.257,-0.116C0.266,-0.126 0.271,-0.144 0.271,-0.169L0.271,-0.23C0.271,-0.262 0.266,-0.284 0.255,-0.297C0.244,-0.309 0.225,-0.315 0.2,-0.315L0.151,-0.315L0.151,-0.1L0.214,-0.1Z" style="fill:rgb(85,9,132);fill-rule:nonzero;"/>
        </g>
    </g>
</svg>
